<svg width="56" height="79" viewBox="0 0 56 79" fill="none" xmlns="http://www.w3.org/2000/svg">
<circle cx="28" cy="28" r="22" fill="#C4C4C4" fill-opacity="0.4"/>
<g clip-path="url(#clip0_288_137)">
<path d="M23.001 45C25.7604 45 28 42.76 28 40V35H23.001C20.2415 35 18.002 37.24 18.002 40C18.002 42.76 20.2415 45 23.001 45Z" fill="#0ACF83"/>
<path d="M18.002 30C18.002 27.24 20.2415 25 23.001 25H28V35H23.001C20.2415 35 18.002 32.76 18.002 30Z" fill="#A259FF"/>
<path d="M18.01 20C18.01 17.24 20.2496 15 23.009 15H28.008V25H23.009C20.2496 25 18.01 22.76 18.01 20Z" fill="#F24E1E"/>
<path d="M28 15H32.999C35.7584 15 37.998 17.24 37.998 20C37.998 22.76 35.7584 25 32.999 25H28V15Z" fill="#FF7262"/>
<path d="M37.998 30C37.998 32.76 35.7584 35 32.999 35C30.2396 35 28 32.76 28 30C28 27.24 30.2396 25 32.999 25C35.7584 25 37.998 27.24 37.998 30Z" fill="#1ABCFE"/>
</g>
<path d="M8.20101 8.20101C3.62041 12.7816 0.769777 18.8088 0.134828 25.2555C-0.500122 31.7023 1.1199 38.1698 4.71885 43.556C8.31781 48.9422 13.673 52.9139 19.872 54.7943C26.071 56.6748 32.7303 56.3476 38.7151 53.8686C44.7 51.3896 49.6401 46.9121 52.6938 41.1991C55.7475 35.4861 56.7258 28.8909 55.462 22.5375C54.1982 16.184 50.7705 10.4653 45.763 6.35571C40.7555 2.24614 34.4779 4.89072e-07 28 0L28 4.2849C33.4866 4.2849 38.8035 6.18731 43.0447 9.66798C47.2859 13.1487 50.189 17.9922 51.2594 23.3734C52.3298 28.7546 51.5012 34.3405 48.9149 39.1792C46.3285 44.018 42.1443 47.8103 37.0754 49.9099C32.0064 52.0095 26.3662 52.2866 21.1159 50.6939C15.8655 49.1013 11.3298 45.7374 8.28162 41.1754C5.23342 36.6135 3.86131 31.1357 4.3991 25.6755C4.93688 20.2153 7.35127 15.1105 11.2309 11.2309L8.20101 8.20101Z" fill="#3B5999"/>
<path d="M9.136 66.726V69.708H13.868V71.248H9.136V75H7.316V65.2H14.47V66.726H9.136ZM15.9253 67.524H17.6753V75H15.9253V67.524ZM16.8073 66.292C16.49 66.292 16.224 66.194 16.0093 65.998C15.7947 65.7927 15.6873 65.5407 15.6873 65.242C15.6873 64.9433 15.7947 64.696 16.0093 64.5C16.224 64.2947 16.49 64.192 16.8073 64.192C17.1247 64.192 17.3907 64.29 17.6053 64.486C17.82 64.6727 17.9273 64.9107 17.9273 65.2C17.9273 65.508 17.82 65.7693 17.6053 65.984C17.4 66.1893 17.134 66.292 16.8073 66.292ZM27.3922 67.524V73.866C27.3922 76.498 26.0482 77.814 23.3602 77.814C22.6416 77.814 21.9602 77.7207 21.3162 77.534C20.6722 77.3567 20.1402 77.0953 19.7202 76.75L20.5042 75.434C20.8309 75.7047 21.2416 75.9193 21.7362 76.078C22.2402 76.246 22.7489 76.33 23.2622 76.33C24.0836 76.33 24.6856 76.1433 25.0682 75.77C25.4509 75.3967 25.6422 74.8273 25.6422 74.062V73.67C25.3436 73.9967 24.9796 74.244 24.5502 74.412C24.1209 74.58 23.6496 74.664 23.1362 74.664C22.4269 74.664 21.7829 74.5147 21.2042 74.216C20.6349 73.908 20.1822 73.4787 19.8462 72.928C19.5196 72.3773 19.3562 71.7473 19.3562 71.038C19.3562 70.3287 19.5196 69.7033 19.8462 69.162C20.1822 68.6113 20.6349 68.1867 21.2042 67.888C21.7829 67.5893 22.4269 67.44 23.1362 67.44C23.6776 67.44 24.1676 67.5287 24.6062 67.706C25.0542 67.8833 25.4276 68.154 25.7262 68.518V67.524H27.3922ZM23.4022 73.18C24.0649 73.18 24.6062 72.984 25.0262 72.592C25.4556 72.1907 25.6702 71.6727 25.6702 71.038C25.6702 70.4127 25.4556 69.904 25.0262 69.512C24.6062 69.12 24.0649 68.924 23.4022 68.924C22.7302 68.924 22.1796 69.12 21.7502 69.512C21.3302 69.904 21.1202 70.4127 21.1202 71.038C21.1202 71.6727 21.3302 72.1907 21.7502 72.592C22.1796 72.984 22.7302 73.18 23.4022 73.18ZM39.1289 67.44C40.0716 67.44 40.8183 67.7153 41.3689 68.266C41.9196 68.8073 42.1949 69.624 42.1949 70.716V75H40.4449V70.94C40.4449 70.2867 40.3003 69.7967 40.0109 69.47C39.7216 69.134 39.3063 68.966 38.7649 68.966C38.1769 68.966 37.7056 69.162 37.3509 69.554C36.9963 69.9367 36.8189 70.4873 36.8189 71.206V75H35.0689V70.94C35.0689 70.2867 34.9243 69.7967 34.6349 69.47C34.3456 69.134 33.9303 68.966 33.3889 68.966C32.7916 68.966 32.3156 69.1573 31.9609 69.54C31.6156 69.9227 31.4429 70.478 31.4429 71.206V75H29.6929V67.524H31.3589V68.476C31.6389 68.14 31.9889 67.8833 32.4089 67.706C32.8289 67.5287 33.2956 67.44 33.8089 67.44C34.3689 67.44 34.8636 67.5473 35.2929 67.762C35.7316 67.9673 36.0769 68.2753 36.3289 68.686C36.6369 68.294 37.0336 67.9907 37.5189 67.776C38.0043 67.552 38.5409 67.44 39.1289 67.44ZM47.2872 67.44C48.3885 67.44 49.2285 67.706 49.8072 68.238C50.3952 68.7607 50.6892 69.554 50.6892 70.618V75H49.0372V74.09C48.8225 74.4167 48.5145 74.6687 48.1132 74.846C47.7212 75.014 47.2452 75.098 46.6852 75.098C46.1252 75.098 45.6352 75.0047 45.2152 74.818C44.7952 74.622 44.4685 74.356 44.2352 74.02C44.0112 73.6747 43.8992 73.2873 43.8992 72.858C43.8992 72.186 44.1465 71.6493 44.6412 71.248C45.1452 70.8373 45.9339 70.632 47.0072 70.632H48.9392V70.52C48.9392 69.9973 48.7805 69.596 48.4632 69.316C48.1552 69.036 47.6932 68.896 47.0772 68.896C46.6572 68.896 46.2419 68.9613 45.8312 69.092C45.4299 69.2227 45.0892 69.4047 44.8092 69.638L44.1232 68.364C44.5152 68.0653 44.9865 67.8367 45.5372 67.678C46.0879 67.5193 46.6712 67.44 47.2872 67.44ZM47.0492 73.824C47.4879 73.824 47.8752 73.726 48.2112 73.53C48.5565 73.3247 48.7992 73.0353 48.9392 72.662V71.794H47.1332C46.1252 71.794 45.6212 72.1253 45.6212 72.788C45.6212 73.1053 45.7472 73.3573 45.9992 73.544C46.2512 73.7307 46.6012 73.824 47.0492 73.824Z" fill="#545454"/>
<defs>
<clipPath id="clip0_288_137">
<rect width="20" height="30" fill="white" transform="translate(18 15)"/>
</clipPath>
</defs>
</svg>
